<?xml version="1.0" encoding="iso-8859-1"?>
<!-- Generator: Adobe Illustrator 19.0.0, SVG Export Plug-In . SVG Version: 6.00 Build 0)  -->
<svg version="1.1" id="Capa_1" xmlns="http://www.w3.org/2000/svg" xmlns:xlink="http://www.w3.org/1999/xlink" x="0px" y="0px"
	 viewBox="0 0 512 512" style="enable-background:new 0 0 512 512;" xml:space="preserve">
<g>
	<g>
		<path d="M512,277.333v-42.667h-65.259c-4.117-37.013-18.816-70.848-40.96-98.496l46.229-46.229l-30.165-30.165l-46.251,46.251
			c-27.605-22.037-61.355-36.672-98.261-40.768V0h-42.667v65.259c-36.971,4.117-70.741,18.773-98.368,40.875L89.963,59.797
			L59.797,89.963l46.336,46.336c-22.101,27.627-36.757,61.397-40.875,98.368H0v42.667h65.259
			c4.117,36.949,18.773,70.72,40.853,98.347l-46.293,46.144l30.123,30.208l46.336-46.165c27.627,22.123,61.419,36.779,98.389,40.896
			V512h42.667v-65.259c36.928-4.096,70.677-18.731,98.283-40.811l46.251,46.08l30.123-30.208l-46.187-46.016
			c22.144-27.627,36.821-61.461,40.939-98.453H512z M256,405.333c-82.347,0-149.333-67.008-149.333-149.333
			c0-82.347,66.987-149.333,149.333-149.333c82.325,0,149.333,66.987,149.333,149.333C405.333,338.325,338.325,405.333,256,405.333z
			"/>
	</g>
</g>
<g>
	<g>
		<path d="M207.147,198.187c-8.107-7.893-22.187-7.893-30.293,0c-3.84,4.053-6.187,9.6-6.187,15.147
			c0,5.547,2.347,11.093,6.187,15.147c4.053,3.84,9.6,6.187,15.147,6.187s11.093-2.347,15.147-6.187
			c3.84-4.053,6.187-9.6,6.187-15.147C213.333,207.787,210.987,202.24,207.147,198.187z"/>
	</g>
</g>
<g>
	<g>
		<path d="M339.627,205.227c-1.067-2.56-2.56-4.907-4.48-7.04c-5.12-4.907-12.373-7.04-19.413-5.76c-1.28,0.213-2.56,0.64-3.84,1.28
			c-1.28,0.427-2.56,1.067-3.861,1.92c-1.067,0.64-2.133,1.707-3.179,2.56c-1.92,2.133-3.413,4.267-4.48,7.04
			c-1.067,2.56-1.707,5.333-1.707,8.107c0,2.773,0.64,5.547,1.707,8.107c1.067,2.773,2.56,5.12,4.48,7.04
			c1.067,0.853,2.133,1.92,3.179,2.56c1.301,0.853,2.56,1.493,3.861,1.92c1.28,0.64,2.56,1.067,3.84,1.28
			c1.493,0.213,2.965,0.427,4.267,0.427c5.547,0,11.093-2.347,15.147-6.187c3.84-4.053,6.187-9.6,6.187-15.147
			C341.333,210.56,340.693,207.787,339.627,205.227z"/>
	</g>
</g>
<g>
	<g>
		<path d="M292.48,304.853c-2.155-1.92-4.267-3.413-7.04-4.48c-7.893-3.2-17.28-1.301-23.253,4.48
			c-1.92,2.133-3.413,4.267-4.48,7.04C256.64,314.453,256,317.227,256,320c0,5.76,2.133,11.093,6.187,15.147
			c4.053,4.032,9.387,6.187,15.147,6.187s11.093-2.155,15.147-6.187c1.92-2.155,3.413-4.48,4.48-7.04
			c1.067-2.56,1.707-5.333,1.707-8.107C298.667,314.453,296.32,308.885,292.48,304.853z"/>
	</g>
</g>
<g>
</g>
<g>
</g>
<g>
</g>
<g>
</g>
<g>
</g>
<g>
</g>
<g>
</g>
<g>
</g>
<g>
</g>
<g>
</g>
<g>
</g>
<g>
</g>
<g>
</g>
<g>
</g>
<g>
</g>
</svg>
