<?xml version="1.0" encoding="iso-8859-1"?>
<!-- Generator: Adobe Illustrator 19.0.0, SVG Export Plug-In . SVG Version: 6.00 Build 0)  -->
<svg version="1.1" id="Layer_1" xmlns="http://www.w3.org/2000/svg" xmlns:xlink="http://www.w3.org/1999/xlink" x="0px" y="0px"
	 viewBox="0 0 267.827 267.827" style="enable-background:new 0 0 267.827 267.827;" xml:space="preserve">
<g>
	<g>
		<g id="XMLID_27_">
			<g>
				<g>
					<path style="fill:#2D213F;" d="M213.883,77.026c44.033,43.578,44.001,114.474-0.033,158.052
						c-21.366,21.106-49.725,32.749-79.904,32.749c-30.212,0-58.57-11.643-79.937-32.749
						c-21.334-21.106-33.074-49.172-33.074-79.059c0-29.854,11.74-57.92,33.074-79.026L127.995,2.39
						c3.122-3.187,8.748-3.187,11.903,0L213.883,77.026z M202.042,223.403c37.562-37.139,37.562-97.596,0-134.767
						c0,0-0.033-0.033-0.065-0.033l-68.034-68.684L65.876,88.604c-18.277,18.049-28.293,41.985-28.293,67.416
						c0,25.464,10.016,49.399,28.228,67.384c18.179,18.017,42.375,27.936,68.132,27.936
						C159.667,251.339,183.863,241.42,202.042,223.403z"/>
				</g>
				<g>
					<path style="fill:#2D213F;" d="M192.094,89.709c1.236,1.106,30.635,27.968,24.196,71.839c-0.618,4.098-4.195,7.057-8.26,7.057
						c-0.39,0-0.781-0.033-1.203-0.065c-4.553-0.65-7.707-4.846-7.057-9.366c5.171-35.253-18.635-57.042-18.862-57.237
						c-3.415-3.057-3.675-8.293-0.585-11.643C183.407,86.912,188.676,86.652,192.094,89.709z"/>
				</g>
				<g>
					<path style="fill:#2D213F;" d="M206.627,174.979c3.87,2.439,5.041,7.545,2.569,11.382l-4.585,7.09
						c-1.594,2.472-4.293,3.805-7.025,3.805c-1.529,0-3.09-0.39-4.488-1.268c-3.87-2.439-5.008-7.545-2.537-11.382l4.553-7.122
						C197.586,173.646,202.757,172.508,206.627,174.979z"/>
				</g>
				<g>
					<path style="fill:#EF685E;" d="M202.042,88.636c37.562,37.172,37.562,97.628,0,134.767
						c-18.179,18.017-42.375,27.936-68.099,27.936c-25.757,0-49.952-9.919-68.132-27.936c-18.212-17.984-28.228-41.92-28.228-67.384
						c0-25.431,10.016-49.367,28.293-67.416l68.067-68.684l68.034,68.684C202.013,88.604,202.042,88.636,202.042,88.636z
						 M216.286,161.548c6.439-43.871-22.96-70.733-24.196-71.839c-3.415-3.057-8.683-2.797-11.773,0.585
						c-3.089,3.35-2.829,8.586,0.585,11.643c0.228,0.195,24.033,21.984,18.862,57.237c-0.65,4.52,2.504,8.716,7.057,9.366
						c0.423,0.033,0.813,0.065,1.203,0.065C212.091,168.605,215.668,165.646,216.286,161.548z M209.196,186.362
						c2.472-3.837,1.301-8.943-2.569-11.382c-3.87-2.472-9.041-1.333-11.512,2.504l-4.553,7.122
						c-2.472,3.837-1.333,8.943,2.537,11.382c1.398,0.878,2.959,1.268,4.488,1.268c2.732,0,5.431-1.333,7.025-3.805L209.196,186.362
						z"/>
				</g>
				<path style="fill:#F47C6D;" d="M202.042,88.636c0,0-0.033-0.033-0.065-0.033l-67.624-68.275L97.864,63.182
					c-15.704,18.049-24.309,41.985-24.309,67.416c0,25.464,8.605,49.399,24.254,67.384c15.62,18.017,36.411,27.936,58.541,27.936
					c22.105,0,42.892-9.919,58.512-27.936c4.813-5.542,8.895-11.607,12.273-18.03C235.363,148.348,227.015,113.349,202.042,88.636z
					 M209.196,186.362l-4.585,7.09c-1.594,2.472-4.293,3.805-7.025,3.805c-1.528,0-3.089-0.39-4.488-1.268
					c-3.87-2.439-5.008-7.545-2.537-11.382l4.553-7.122c2.472-3.837,7.642-4.976,11.512-2.504
					C210.501,177.419,211.671,182.524,209.196,186.362z M208.026,168.605c-0.39,0-0.781-0.033-1.203-0.065
					c-4.553-0.65-7.707-4.846-7.057-9.366c5.171-35.253-18.635-57.042-18.862-57.237c-3.415-3.057-3.675-8.293-0.585-11.643
					c3.09-3.382,8.358-3.642,11.773-0.585c1.236,1.106,30.635,27.968,24.196,71.839
					C215.668,165.646,212.091,168.605,208.026,168.605z"/>
			</g>
		</g>
	</g>
</g>
<g>
</g>
<g>
</g>
<g>
</g>
<g>
</g>
<g>
</g>
<g>
</g>
<g>
</g>
<g>
</g>
<g>
</g>
<g>
</g>
<g>
</g>
<g>
</g>
<g>
</g>
<g>
</g>
<g>
</g>
</svg>
