<?xml version="1.0" encoding="iso-8859-1"?>
<!-- Generator: Adobe Illustrator 19.0.0, SVG Export Plug-In . SVG Version: 6.00 Build 0)  -->
<svg version="1.1" id="Capa_1" xmlns="http://www.w3.org/2000/svg" xmlns:xlink="http://www.w3.org/1999/xlink" x="0px" y="0px"
	 viewBox="0 0 483.323 483.323" style="enable-background:new 0 0 483.323 483.323;" xml:space="preserve">
<g>
	<g>
		<path d="M358.624,158.834l20.688-20.688v-24L480.968,12.49L469.656,1.178L368,102.834h-24l-20.688,20.688l-32-32l-200,200l-24-24
			L32,302.834l48,48l-36.688,36.688l-8-8L0,414.834l67.312,67.312l35.312-35.312l-8-8l36.688-36.688l48,48l35.312-35.312l-24-24
			l200-200L358.624,158.834z M350.624,118.834h12.688v12.688l-16,16l-12.688-12.688L350.624,118.834z M67.312,459.522
			l-44.688-44.688l12.688-12.688L80,446.834L67.312,459.522z M83.312,427.522l-28.688-28.688l36.688-36.688L120,390.834
			L83.312,427.522z M192,414.834l-12.688,12.688l-36.688-36.688l-51.312-51.312l-36.688-36.688l12.688-12.688L80,302.834
			l99.312,99.312L192,414.834z M179.312,379.522l-76.688-76.688l28.688-28.688l34.344,34.344l11.312-11.312l-34.344-34.344
			l28.688-28.688l50.344,50.344l11.312-11.312l-50.344-50.344l28.688-28.688l34.344,34.344l11.312-11.312l-34.344-34.344
			l28.688-28.688l50.344,50.344l11.312-11.312l-50.344-50.344l28.688-28.688L312,134.834l35.312,35.312L368,190.834L179.312,379.522
			z"/>
	</g>
</g>
<g>
	<g>
		<path d="M474.344,106.546h-0.008l-23.024-23.024l-23.024,23.024c-11.965,11.954-11.973,31.344-0.019,43.309
			c5.747,5.752,13.545,8.982,21.675,8.979h2.744c16.913,0.006,30.629-13.7,30.635-30.613
			C483.326,120.09,480.096,112.292,474.344,106.546z M463.019,138.55c-2.743,2.741-6.461,4.282-10.339,4.283h-2.744
			c-8.081-0.003-14.63-6.556-14.627-14.637c0.001-3.878,1.542-7.597,4.283-10.339l11.72-11.712l11.712,11.712
			C468.737,123.573,468.735,132.837,463.019,138.55z"/>
	</g>
</g>
<g>
</g>
<g>
</g>
<g>
</g>
<g>
</g>
<g>
</g>
<g>
</g>
<g>
</g>
<g>
</g>
<g>
</g>
<g>
</g>
<g>
</g>
<g>
</g>
<g>
</g>
<g>
</g>
<g>
</g>
</svg>
